<svg width="256" height="256" viewBox="0 0 256 256" fill="none" xmlns="http://www.w3.org/2000/svg">
<circle cx="128" cy="128" r="123" fill="#2B2E3B" stroke="#408A99" stroke-width="10"/>
<path d="M174.25 127.5C158.938 127.5 146.5 139.926 146.5 155.25C146.5 170.574 158.938 183 174.25 183C189.562 183 202 170.574 202 155.25C202 139.926 189.562 127.5 174.25 127.5ZM189.667 155.25C189.667 156.953 188.286 158.333 186.583 158.333H183.5C180.094 158.333 177.333 161.094 177.333 164.5V167.583C177.333 169.286 175.953 170.667 174.25 170.667C172.547 170.667 171.167 169.286 171.167 167.583V164.5C171.167 161.094 168.406 158.333 165 158.333H161.917C160.214 158.333 158.833 156.953 158.833 155.25C158.833 153.547 160.214 152.167 161.917 152.167H165C168.406 152.167 171.167 149.406 171.167 146V142.917C171.167 141.214 172.547 139.833 174.25 139.833C175.953 139.833 177.333 141.214 177.333 142.917V146C177.333 149.406 180.094 152.167 183.5 152.167H186.583C188.286 152.167 189.667 153.547 189.667 155.25ZM95.546 158.333C88.3451 158.333 84.0602 150.297 88.073 144.318L97.9808 129.555C100.867 125.255 106.805 124.324 110.869 127.536C115.013 130.811 121.082 129.77 123.897 125.301L126.523 121.134C130.06 115.519 138.302 115.615 141.82 121.243C144.02 124.761 143.459 129.313 141.117 132.739C137.893 137.457 135.684 142.848 134.732 148.644C133.883 153.818 129.85 158.333 124.607 158.333H95.546ZM138.665 173.664C140.671 177.517 138.166 183 133.822 183H63C58.0294 183 54 178.971 54 174V81C54 76.0294 58.0294 72 63 72H180.667C185.637 72 189.667 76.0294 189.667 81V110.378C189.667 114.122 185.879 116.716 182.206 115.987C179.52 115.454 177.333 113.206 177.333 110.467V93.3333C177.333 88.3628 173.304 84.3333 168.333 84.3333H75.3333C70.3628 84.3333 66.3333 88.3628 66.3333 93.3333V161.667C66.3333 166.637 70.3628 170.667 75.3333 170.667H133.975C135.966 170.667 137.745 171.899 138.665 173.664ZM87.9167 115.167C82.8107 115.167 78.6667 111.029 78.6667 105.917C78.6667 100.811 82.8107 96.6667 87.9167 96.6667C93.0227 96.6667 97.1667 100.811 97.1667 105.917C97.1667 111.029 93.0227 115.167 87.9167 115.167Z" fill="#A0EAF9"/>
</svg>
